PathFileType	4	(X/Y/Z)	/Users/itak/Documents/Research/Walk-IL/dataset/trc/00069_00006.trc
DataRate	CameraRate	NumFrames	NumMarkers	Units	OrigDataRate	OrigDataStartFrame	OrigNumFrames
100.000000	100.000000	4	53	mm	100.000000	0	765
Frame#	Time	RPSI			LPSI			L3			STRN			T10			C7			CLAV			RBAK			LBAK			LSHO			LUPA			LAEL			LAOL			LWTS			LWPS			LFRA			LIFD			LHPS			LHTS			RSHO			RUPA			RAEL			RAOL			RWTS			RWPS			RFRA			RIFD			RHTS			RHPS			RBHD			LFHD			RFHD			LBHD			LHIP			RHIP			RASI			LASI			LKNE			LTHI			LANK			LTIP			LTOE			LMT1			LMT5			LHEE			RKNE			RTHI			RANK			RTIP			RTOE			RMT1			RMT5			RHEE			
		X1	Y1	Z1	X2	Y2	Z2	X3	Y3	Z3	X4	Y4	Z4	X5	Y5	Z5	X6	Y6	Z6	X7	Y7	Z7	X8	Y8	Z8	X9	Y9	Z9	X10	Y10	Z10	X11	Y11	Z11	X12	Y12	Z12	X13	Y13	Z13	X14	Y14	Z14	X15	Y15	Z15	X16	Y16	Z16	X17	Y17	Z17	X18	Y18	Z18	X19	Y19	Z19	X20	Y20	Z20	X21	Y21	Z21	X22	Y22	Z22	X23	Y23	Z23	X24	Y24	Z24	X25	Y25	Z25	X26	Y26	Z26	X27	Y27	Z27	X28	Y28	Z28	X29	Y29	Z29	X30	Y30	Z30	X31	Y31	Z31	X32	Y32	Z32	X33	Y33	Z33	X34	Y34	Z34	X35	Y35	Z35	X36	Y36	Z36	X37	Y37	Z37	X38	Y38	Z38	X39	Y39	Z39	X40	Y40	Z40	X41	Y41	Z41	X42	Y42	Z42	X43	Y43	Z43	X44	Y44	Z44	X45	Y45	Z45	X46	Y46	Z46	X47	Y47	Z47	X48	Y48	Z48	X49	Y49	Z49	X50	Y50	Z50	X51	Y51	Z51	X52	Y52	Z52	X53	Y53	Z53	

1	0	280.4702453613281	1033.020263671875	1052.439331054688	300.8803405761719	1026.234130859375	1227.543334960938	287.9962768554688	1081.665893554688	1146.664916992188	46.59199142456055	1285.279052734375	1153.830444335938	312.214111328125	1216.250610351562	1148.803833007812	258.2357177734375	1483.741088867188	1152.931030273438	78.33015441894531	1399.486328125	1153.863525390625	316.28173828125	1343.883178710938	1076.189697265625	281.25390625	1446.3779296875	1254.534790039062	178.4068450927734	1452.23095703125	1328.339965820312	188.3924102783203	1323.383666992188	1404.158935546875	152.8314819335938	1107.315795898438	1414.609375	221.39892578125	1092.59033203125	1333.187255859375	49.40848922729492	878.0323486328125	1331.021240234375	96.47348022460938	856.2306518554688	1389.752197265625	123.2945785522461	999.1639404296875	1414.532470703125	26.5679759979248	698.23095703125	1294.403930664062	61.63079071044922	780.997802734375	1380.413940429688	18.81367683410645	798.6976318359375	1327.388305664062	189.8038635253906	1446.833740234375	977.6829223632812	195.8489379882812	1376.073608398438	914.392333984375	206.3545837402344	1106.380004882812	894.86669921875	196.5112915039062	1090.413452148438	992.7967529296875	52.91389846801758	865.0167236328125	952.6234741210938	117.6419525146484	844.0092163085938	898.0802612304688	188.0770416259766	1027.42138671875	892.7808837890625	52.92120361328125	682.0853881835938	988.6868896484375	23.04400634765625	763.0918579101562	957.9563598632812	77.04129791259766	755.7012939453125	901.4991455078125	216.3380584716797	1667.852172851562	1218.199462890625	60.4987678527832	1695.232421875	1071.804809570312	42.76220703125	1704.796752929688	1196.281372070312	225.7904510498047	1650.681518554688	1082.1474609375	201.2822113037109	963.4116821289062	1322.412719726562	207.6870880126953	960.9208374023438	981.2786254882812	84.75088500976562	977.7645263671875	1008.402038574219	85.62014770507812	973.212158203125	1278.386840820312	123.381233215332	500.6337890625	1277.439331054688	156.7069854736328	641.3854370117188	1312.740600585938	260.9888000488281	51.57180404663086	1298.826538085938	198.1296234130859	263.0504455566406	1301.330078125	54.30824661254883	44.62764358520508	1290.267333984375	104.4577789306641	42.55358123779297	1236.339111328125	157.7191009521484	42.92274475097656	1335.7568359375	314.3189086914062	47.10451507568359	1224.373413085938	147.8677215576172	514.994384765625	1015.564086914062	130.7611389160156	786.197265625	981.011474609375	256.0021057128906	43.45457458496094	1027.225463867188	175.5665435791016	394.6070251464844	1012.376403808594	40.50046539306641	40.68924331665039	1071.695922851562	103.938591003418	44.81628799438477	1110.134521484375	130.6641082763672	47.37233352661133	1016.617065429688	305.8521728515625	45.39323425292969	1082.692993164062	
2	0.01	280.5162658691406	1033.036743164062	1052.508911132812	300.9112243652344	1026.234741210938	1227.602416992188	288.0132141113281	1081.682495117188	1146.75439453125	46.61918258666992	1285.2705078125	1153.886840820312	312.24609375	1216.254028320312	1148.940307617188	258.2733764648438	1483.740112304688	1153.062133789062	78.34718322753906	1399.483154296875	1153.949951171875	316.3096008300781	1343.89697265625	1076.35302734375	281.2776184082031	1446.393188476562	1254.66259765625	178.3578491210938	1452.24951171875	1328.43701171875	188.2856140136719	1323.397094726562	1404.250854492188	152.6603546142578	1107.368774414062	1414.826171875	221.2409362792969	1092.569213867188	1333.436889648438	49.29337692260742	877.9793701171875	1331.400268554688	95.43020629882812	855.2957153320312	1389.265258789062	123.2478561401367	999.2117309570312	1414.845581054688	26.5080680847168	698.1577758789062	1295.026000976562	61.55064010620117	780.9871215820312	1380.853271484375	18.74359893798828	798.6271362304688	1327.846069335938	189.8562774658203	1446.826416015625	977.783203125	195.9404907226562	1376.071044921875	914.5117797851562	206.5144348144531	1106.389282226562	894.9718627929688	196.5153961181641	1090.416259765625	992.8857421875	53.14687347412109	864.9658813476562	952.6382446289062	117.8774261474609	843.9911499023438	898.1283569335938	188.2970886230469	1027.426147460938	892.889892578125	53.21435165405273	682.0228881835938	988.6874389648438	23.38854789733887	763.0256958007812	957.9951171875	77.28513336181641	755.6640014648438	901.5062866210938	216.2119903564453	1667.905395507812	1218.294677734375	60.46026611328125	1695.17529296875	1071.815673828125	42.66168212890625	1704.778076171875	1196.230834960938	225.7717895507812	1650.680908203125	1082.221313476562	201.2879486083984	963.4116821289062	1322.451293945312	207.7586669921875	960.9449462890625	981.3313598632812	84.82996368408203	977.7774047851562	1008.445495605469	85.59890747070312	973.2061767578125	1278.422729492188	123.3417358398438	500.6279296875	1277.433959960938	156.693603515625	641.3865356445312	1312.749755859375	260.9857177734375	51.5750846862793	1298.8251953125	198.1121368408203	263.0479431152344	1301.328979492188	54.31172561645508	44.63021850585938	1290.264404296875	104.4550628662109	42.54716491699219	1236.3408203125	157.7203063964844	42.91941833496094	1335.75341796875	314.3131713867188	47.09975051879883	1224.377319335938	147.8699798583984	515.0084838867188	1015.580993652344	130.7799682617188	786.2078857421875	981.0408935546875	256.0045471191406	43.45476531982422	1027.227172851562	175.5413360595703	394.604736328125	1012.404479980469	40.501220703125	40.68970108032227	1071.697265625	103.9409561157227	44.8126335144043	1110.138305664062	130.6702575683594	47.37004470825195	1016.630004882812	305.858642578125	45.40144348144531	1082.684814453125	
3	0.02	280.5751953125	1033.060180664062	1052.599975585938	300.9494934082031	1026.241088867188	1227.680908203125	288.0293579101562	1081.702392578125	1146.866821289062	46.65216445922852	1285.260131835938	1153.954833984375	312.2886352539062	1216.2607421875	1149.109375	258.3142700195312	1483.73876953125	1153.230224609375	78.36501312255859	1399.4794921875	1154.05712890625	316.3362121582031	1343.9130859375	1076.5576171875	281.3034057617188	1446.411254882812	1254.8193359375	178.2913818359375	1452.27099609375	1328.55810546875	188.1481323242188	1323.416015625	1404.366455078125	152.4636840820312	1107.430908203125	1415.099365234375	221.0713653564453	1092.545043945312	1333.735961914062	49.17072677612305	877.9036254882812	1331.909912109375	94.82372283935547	854.7626342773438	1389.295654296875	123.188835144043	999.2779541015625	1415.25244140625	26.46178245544434	698.0640258789062	1295.855346679688	61.49044799804688	780.970458984375	1381.454223632812	18.67761421203613	798.5264282226562	1328.46875	189.9208221435547	1446.817260742188	977.9082641601562	196.0517272949219	1376.069702148438	914.6599731445312	206.7260437011719	1106.405029296875	895.1030883789062	196.5326690673828	1090.421875	992.9984130859375	53.45462417602539	864.8975219726562	952.650146484375	118.1921463012695	843.9706420898438	898.1809692382812	188.5791320800781	1027.43408203125	893.023193359375	53.5981559753418	681.9423217773438	988.676025390625	23.82221412658691	762.9414672851562	958.0220336914062	77.62234497070312	755.6151123046875	901.5123901367188	216.0650329589844	1667.96826171875	1218.417602539062	60.41157913208008	1695.107543945312	1071.83642578125	42.54455184936523	1704.75244140625	1196.177734375	225.7528839111328	1650.6826171875	1082.317016601562	201.2906341552734	963.4144287109375	1322.499755859375	207.8579406738281	960.9737548828125	981.399658203125	84.93071746826172	977.7936401367188	1008.498229980469	85.57311248779297	973.2005004882812	1278.463134765625	123.3058624267578	500.6227416992188	1277.429931640625	156.684814453125	641.3880615234375	1312.765014648438	260.9833984375	51.57851028442383	1298.823974609375	198.0937042236328	263.0444946289062	1301.328002929688	54.31343841552734	44.63154220581055	1290.259155273438	104.4533157348633	42.54159545898438	1236.34033203125	157.7193756103516	42.91579818725586	1335.74609375	314.3074035644531	47.09476852416992	1224.380981445312	147.8818054199219	515.0235595703125	1015.60107421875	130.8107147216797	786.21923828125	981.0762939453125	256.0068664550781	43.45529937744141	1027.229614257812	175.5263671875	394.6056213378906	1012.436462402344	40.50073623657227	40.69010543823242	1071.69775390625	103.9432373046875	44.80978393554688	1110.142211914062	130.6756286621094	47.36823654174805	1016.641662597656	305.86328125	45.40221405029297	1082.682983398438	
4	0.03	280.6450500488281	1033.090698242188	1052.710571289062	300.9927978515625	1026.254272460938	1227.777099609375	288.0421752929688	1081.72509765625	1146.997802734375	46.68891143798828	1285.24853515625	1154.0302734375	312.3393859863281	1216.271484375	1149.302490234375	258.3531494140625	1483.737670898438	1153.428833007812	78.38082885742188	1399.474487304688	1154.178955078125	316.3576354980469	1343.9306640625	1076.79443359375	281.327880859375	1446.430419921875	1254.997436523438	178.2083587646484	1452.29345703125	1328.698364257812	187.9852447509766	1323.441040039062	1404.502685546875	152.2594604492188	1107.498168945312	1415.417602539062	220.9083709716797	1092.520385742188	1334.066284179688	49.05820083618164	877.8034057617188	1332.546264648438	94.86589813232422	854.8226928710938	1390.014282226562	123.1190872192383	999.3638916015625	1415.742065429688	26.44931983947754	697.9458618164062	1296.881713867188	61.47550964355469	780.94580078125	1382.219848632812	18.63371467590332	798.3914794921875	1329.256713867188	189.9942169189453	1446.807250976562	978.0526733398438	196.1754455566406	1376.070556640625	914.8292846679688	206.9861145019531	1106.428466796875	895.2545776367188	196.5692138671875	1090.43115234375	993.1307373046875	53.83107757568359	864.8128051757812	952.6549072265625	118.5859985351562	843.9486694335938	898.232421875	188.9139404296875	1027.4462890625	893.1726684570312	54.06817245483398	681.845947265625	988.6475219726562	24.33259010314941	762.839599609375	958.0293579101562	78.05736541748047	755.5552368164062	901.5166625976562	215.9087982177734	1668.036376953125	1218.564575195312	60.35477066040039	1695.033203125	1071.869506835938	42.42211532592773	1704.721069335938	1196.130493164062	225.7357940673828	1650.687255859375	1082.431518554688	201.2884368896484	963.4197998046875	1322.555786132812	207.9854736328125	961.005126953125	981.4813842773438	85.0494384765625	977.8120727539062	1008.557067871094	85.54579925537109	973.1964111328125	1278.504150390625	123.28125	500.6188659667969	1277.428588867188	156.6840209960938	641.3899536132812	1312.787109375	260.9816284179688	51.58152770996094	1298.823120117188	198.0772247314453	263.0405883789062	1301.32763671875	54.31325531005859	44.6308479309082	1290.251708984375	104.4523773193359	42.53765106201172	1236.33740234375	157.7159881591797	42.91178131103516	1335.735595703125	314.3023681640625	47.09045028686523	1224.384399414062	147.9084777832031	515.0382080078125	1015.623474121094	130.855712890625	786.2308349609375	981.115966796875	256.0089416503906	43.45627593994141	1027.23291015625	175.5313568115234	394.6114196777344	1012.469909667969	40.49851226806641	40.69037246704102	1071.697143554688	103.9451293945312	44.80783462524414	1110.14501953125	130.6799621582031	47.36725616455078	1016.650146484375	305.8655090332031	45.39386749267578	1082.688842773438	
